<svg width="446" height="434" viewBox="0 0 446 434" fill="none" xmlns="http://www.w3.org/2000/svg">
<path d="M446 217C446 336.759 346.071 434 223 434C99.9189 434 0 336.759 0 217C0 97.2305 99.9189 0 223 0C346.071 0 446 97.2305 446 217Z" fill="white"/>
<path fill-rule="evenodd" clip-rule="evenodd" d="M155.578 299.87C158.31 299.464 160.194 296.92 159.788 294.189C159.622 293.075 159.101 292.103 158.357 291.369L164.701 276.048C165.182 276.121 165.681 276.124 166.186 276.049C167.676 275.827 168.914 274.969 169.666 273.792L186.583 277.216C187.061 279.863 189.56 281.668 192.239 281.269C194.97 280.863 196.855 278.319 196.448 275.588C196.364 275.023 196.188 274.494 195.939 274.014L207.549 260.457C208.131 260.587 208.746 260.614 209.37 260.521C212.102 260.114 213.986 257.57 213.58 254.839C213.572 254.786 213.563 254.733 213.553 254.68C213.541 254.613 213.528 254.546 213.513 254.479L232.478 245.959C233.397 246.457 234.479 246.672 235.593 246.507C238.324 246.1 240.208 243.556 239.802 240.825C239.636 239.711 239.115 238.739 238.371 238.005L244.904 216.795C244.96 216.791 245.016 216.786 245.072 216.781C245.153 216.773 245.235 216.762 245.317 216.75C246.935 216.509 248.255 215.519 248.979 214.183L268.396 215.547C268.896 218.167 271.38 219.947 274.043 219.551C276.774 219.144 278.658 216.601 278.252 213.869C277.845 211.138 275.301 209.253 272.57 209.66C270.819 209.921 269.416 211.06 268.742 212.564L249.546 211.216C249.54 211.167 249.534 211.118 249.526 211.068C249.12 208.337 246.576 206.453 243.844 206.859C241.113 207.266 239.229 209.81 239.635 212.541C239.863 214.07 240.76 215.334 241.986 216.079L235.657 236.624C235.161 236.544 234.644 236.538 234.12 236.616C231.389 237.022 229.504 239.566 229.911 242.297C229.982 242.775 230.118 243.226 230.31 243.644L211.995 251.873C210.923 250.901 209.44 250.4 207.898 250.63C205.167 251.036 203.282 253.58 203.689 256.311C203.839 257.321 204.281 258.214 204.917 258.919L193.81 271.888C192.906 271.417 191.851 271.217 190.766 271.378C189.035 271.636 187.643 272.753 186.961 274.232L170.446 270.889C170.443 270.821 170.438 270.753 170.432 270.685C170.423 270.579 170.411 270.473 170.395 270.367C169.989 267.636 167.445 265.751 164.714 266.158C161.982 266.564 160.098 269.108 160.504 271.839C160.675 272.986 161.223 273.984 162.002 274.725L155.679 289.994C155.172 289.908 154.642 289.9 154.106 289.979C151.375 290.386 149.49 292.93 149.897 295.661C150.303 298.392 152.847 300.277 155.578 299.87ZM155.318 298.125C157.086 297.862 158.305 296.216 158.042 294.449C157.779 292.681 156.133 291.462 154.366 291.725C152.598 291.988 151.379 293.634 151.642 295.401C151.905 297.169 153.551 298.388 155.318 298.125ZM168.65 270.627C168.913 272.394 167.694 274.04 165.926 274.303C164.159 274.566 162.513 273.347 162.25 271.58C161.987 269.812 163.206 268.166 164.974 267.903C166.741 267.64 168.387 268.859 168.65 270.627ZM191.979 279.524C193.746 279.261 194.966 277.615 194.703 275.847C194.44 274.08 192.794 272.861 191.026 273.124C189.259 273.387 188.04 275.033 188.303 276.8C188.566 278.568 190.212 279.787 191.979 279.524ZM211.834 255.099C212.097 256.866 210.878 258.512 209.11 258.775C207.343 259.038 205.697 257.819 205.434 256.051C205.171 254.284 206.39 252.638 208.158 252.375C209.925 252.112 211.571 253.331 211.834 255.099ZM235.333 244.761C237.1 244.498 238.32 242.852 238.056 241.085C237.793 239.317 236.147 238.098 234.38 238.361C232.613 238.624 231.393 240.27 231.656 242.037C231.919 243.805 233.565 245.024 235.333 244.761ZM247.781 211.328C248.044 213.096 246.824 214.742 245.057 215.005C243.29 215.268 241.644 214.048 241.381 212.281C241.118 210.514 242.337 208.868 244.104 208.605C245.872 208.342 247.518 209.561 247.781 211.328ZM273.783 217.805C275.55 217.542 276.769 215.896 276.506 214.129C276.243 212.362 274.597 211.142 272.83 211.405C271.063 211.669 269.843 213.315 270.106 215.082C270.369 216.849 272.015 218.069 273.783 217.805Z" fill="black"/>
<path fill-rule="evenodd" clip-rule="evenodd" d="M106.349 45L103 374.863L346.409 199.434L106.349 45ZM321.44 200.068L118.6 69.578L115.77 348.298L321.44 200.068Z" fill="black"/>
<path fill-rule="evenodd" clip-rule="evenodd" d="M354.763 203L245 281.367L246.847 290.067L233.177 292.975C231.664 290.514 228.706 289.15 225.724 289.798C221.951 290.618 219.55 294.35 220.369 298.118C221.19 301.899 224.924 304.298 228.697 303.479C231.539 302.861 233.603 300.59 234.097 297.891L247.885 294.958L248.14 296.159L275.218 290.743C276.572 290.472 277.889 291.35 278.16 292.704C278.431 294.058 277.553 295.375 276.199 295.646L249.178 301.05L249.287 301.563L216.367 308.716C215.029 305.792 211.787 304.083 208.516 304.793C204.743 305.613 202.341 309.346 203.16 313.114C203.981 316.894 207.715 319.294 211.488 318.474C214.015 317.925 215.927 316.069 216.667 313.767L250.325 306.454L250.625 307.868L289.194 299.748C290.545 299.463 291.87 300.328 292.155 301.679C292.439 303.03 291.575 304.356 290.224 304.641L251.663 312.759L251.986 314.28L236.424 317.661C234.882 315.306 231.991 314.019 229.078 314.652C225.305 315.472 222.903 319.205 223.722 322.973C224.544 326.753 228.277 329.153 232.05 328.333C234.962 327.701 237.057 325.333 237.484 322.548L253.025 319.171L253.398 320.931L306.146 308.758C307.492 308.448 308.834 309.287 309.145 310.632C309.455 311.977 308.616 313.32 307.271 313.63L254.436 325.823L254.893 327.975L246.237 329.856C244.695 327.501 241.804 326.214 238.891 326.847C235.118 327.667 232.716 331.399 233.535 335.167C234.356 338.948 238.09 341.348 241.863 340.528C244.775 339.895 246.87 337.528 247.297 334.742L255.932 332.866L256.372 334.941L308.136 322.761C309.48 322.444 310.826 323.278 311.142 324.622C311.458 325.966 310.625 327.312 309.281 327.628L257.41 339.833L258.008 342.648L236.033 347.423C234.696 344.499 231.454 342.79 228.182 343.5C224.409 344.32 222.008 348.053 222.827 351.821C223.648 355.601 227.382 358.001 231.155 357.181C233.682 356.632 235.594 354.776 236.334 352.474L259.046 347.539L259.392 349.168L291.141 341.76C292.485 341.446 293.829 342.282 294.143 343.626C294.457 344.971 293.621 346.315 292.277 346.629L260.43 354.06L260.707 355.365L252.182 357.217C250.64 354.863 247.749 353.576 244.835 354.209C241.063 355.028 238.661 358.761 239.48 362.529C240.301 366.31 244.035 368.709 247.808 367.889C250.72 367.257 252.814 364.889 253.241 362.104L261.745 360.256L263.729 369.601L338.21 371.471L406.526 302.505L350.6 272.504L405.052 235.23L354.763 203ZM275.378 284.052L333.883 313.357L288.743 359.398L334.969 360.559L390.195 304.807L331.447 273.293L387.07 235.217L356.108 215.373L266.291 279.5L275.302 284.014L275.367 284L275.378 284.052ZM228.06 300.547C230.215 300.079 231.588 297.946 231.118 295.785C230.651 293.632 228.517 292.261 226.361 292.729C224.205 293.198 222.833 295.331 223.301 297.484C223.77 299.644 225.904 301.015 228.06 300.547ZM209.153 307.725C211.308 307.257 213.442 308.628 213.91 310.781C214.379 312.941 213.007 315.074 210.851 315.543C208.695 316.011 206.562 314.64 206.092 312.48C205.624 310.326 206.997 308.193 209.153 307.725ZM234.472 320.64C234.004 318.487 231.87 317.116 229.715 317.584C227.559 318.052 226.187 320.185 226.654 322.339C227.124 324.499 229.257 325.87 231.413 325.402C233.569 324.933 234.941 322.8 234.472 320.64ZM239.527 329.779C241.683 329.31 243.817 330.681 244.285 332.835C244.754 334.995 243.382 337.128 241.226 337.596C239.07 338.065 236.937 336.693 236.467 334.533C235.999 332.38 237.372 330.247 239.527 329.779ZM233.577 349.488C233.109 347.335 230.975 345.964 228.819 346.432C226.663 346.9 225.291 349.033 225.759 351.186C226.228 353.347 228.362 354.718 230.518 354.25C232.674 353.781 234.046 351.648 233.577 349.488ZM245.472 357.14C247.628 356.672 249.762 358.043 250.23 360.196C250.699 362.356 249.327 364.489 247.171 364.958C245.015 365.426 242.881 364.055 242.412 361.895C241.944 359.742 243.317 357.609 245.472 357.14Z" fill="black"/>
</svg>
